
<svg xmlns="http://www.w3.org/2000/svg" style="display: none;">

    <symbol id="icon-logo">
        <svg xmlns="http://www.w3.org/2000/svg" width="358.635" height="358.635" style="enable-background:new 0 0 358.635 358.635" xml:space="preserve"><path d="M346.975 336.987c-4.154-4.254-12.083-13.256-18.521-25.729-12.082-23.414-13.847-48.069-5.248-73.283 8.869-26.002 13.198-50.95 12.867-74.155l.011-.896C336.083 73.087 262.997 0 173.161 0 83.326.001 10.239 73.088 10.239 162.925c0 89.835 73.086 162.922 162.922 162.922 44.907 0 86.735-17.883 117.779-50.354.958 16.992 5.65 33.58 13.948 49.299 8.421 15.955 18.563 27.145 23.86 32.395a4.996 4.996 0 0 0 3.741 1.443 5.001 5.001 0 0 0 3.599-1.766l11.126-13.152a5.006 5.006 0 0 0-.239-6.725zM103.896 122.934c-4.748 8.225-13.604 13.334-23.113 13.334a26.655 26.655 0 0 1-13.305-3.575c-6.167-3.561-10.579-9.31-12.421-16.188-1.843-6.878-.896-14.063 2.665-20.231C62.47 88.049 71.326 82.94 80.835 82.94c4.651 0 9.252 1.236 13.303 3.574 12.731 7.354 17.109 23.693 9.758 36.42zm-48.84 86.409c1.843-6.878 6.254-12.626 12.42-16.188a26.676 26.676 0 0 1 13.307-3.575c9.507 0 18.364 5.108 23.113 13.334 7.351 12.729 2.973 29.065-9.756 36.419a26.658 26.658 0 0 1-13.306 3.576c-9.508 0-18.364-5.109-23.113-13.336-3.561-6.166-4.507-13.351-2.665-20.23zm118.105 33.56c7.122 0 13.816 2.771 18.853 7.81 5.034 5.035 7.808 11.729 7.808 18.854 0 14.7-11.959 26.659-26.659 26.659-14.699 0-26.658-11.959-26.658-26.659-.001-14.702 11.957-26.664 26.656-26.664zm0-159.959c-14.699 0-26.658-11.959-26.658-26.659 0-14.701 11.959-26.661 26.658-26.661 14.7 0 26.659 11.96 26.659 26.661 0 14.7-11.959 26.659-26.659 26.659zm0 45.176c19.192 0 34.807 15.613 34.807 34.806 0 19.19-15.613 34.804-34.807 34.804-19.191 0-34.804-15.612-34.804-34.804.001-19.193 15.613-34.806 34.804-34.806zm105.687 4.572a26.666 26.666 0 0 1-13.309 3.576c-9.508 0-18.364-5.109-23.114-13.335-7.352-12.728-2.974-29.064 9.757-36.418a26.647 26.647 0 0 1 13.306-3.576c9.509 0 18.366 5.109 23.115 13.334 7.35 12.732 2.973 29.068-9.755 36.419zm-36.422 70.223c4.749-8.225 13.604-13.334 23.112-13.334 4.653 0 9.254 1.236 13.309 3.576 6.152 3.554 10.56 9.304 12.403 16.188 1.848 6.89.905 14.072-2.647 20.229-4.749 8.226-13.606 13.334-23.115 13.334-4.65 0-9.252-1.235-13.303-3.573-12.731-7.354-17.108-23.691-9.759-36.42z"/></svg>
    </symbol>

    <symbol id="icon-github">
        <svg width="20" height="20" xmlns="http://www.w3.org/2000/svg"><path d="M13.18 11.309c-.718 0-1.3.807-1.3 1.799 0 .994.582 1.801 1.3 1.801s1.3-.807 1.3-1.801c-.001-.992-.582-1.799-1.3-1.799zm4.526-4.683c.149-.365.155-2.439-.635-4.426 0 0-1.811.199-4.551 2.08-.575-.16-1.548-.238-2.519-.238-.973 0-1.945.078-2.52.238C4.74 2.399 2.929 2.2 2.929 2.2c-.789 1.987-.781 4.061-.634 4.426C1.367 7.634.8 8.845.8 10.497c0 7.186 5.963 7.301 7.467 7.301l1.734.002 1.732-.002c1.506 0 7.467-.115 7.467-7.301 0-1.652-.566-2.863-1.494-3.871zm-7.678 10.289h-.056c-3.771 0-6.709-.449-6.709-4.115 0-.879.31-1.693 1.047-2.369C5.537 9.304 7.615 9.9 9.972 9.9h.056c2.357 0 4.436-.596 5.664.531.735.676 1.045 1.49 1.045 2.369 0 3.666-2.937 4.115-6.709 4.115zm-3.207-5.606c-.718 0-1.3.807-1.3 1.799 0 .994.582 1.801 1.3 1.801.719 0 1.301-.807 1.301-1.801 0-.992-.582-1.799-1.301-1.799z"/></svg>
    </symbol>

    <symbol id="icon-telegram">
        <svg width="24" height="24" xmlns="http://www.w3.org/2000/svg"><path fill-rule="evenodd" clip-rule="evenodd" d="M5.788 14.02a.746.746 0 0 0 .132.031 456.056 456.056 0 0 1 .844 2.002c.503 1.202 1.01 2.44 1.121 2.796.139.438.285.736.445.94.083.104.178.196.29.266a.88.88 0 0 0 .186.088c.32.12.612.07.795.009a1.313 1.313 0 0 0 .304-.15L9.91 20l2.826-1.762 3.265 2.502c.048.037.1.068.156.093.392.17.772.23 1.13.182.356-.05.639-.199.85-.368a1.992 1.992 0 0 0 .564-.728l.009-.022.003-.008.002-.004v-.002l.001-.001a.756.756 0 0 0 .04-.133l2.98-15.025a.752.752 0 0 0 .014-.146c0-.44-.166-.859-.555-1.112-.334-.217-.705-.227-.94-.209-.252.02-.486.082-.643.132a3.458 3.458 0 0 0-.26.094l-.011.005-16.714 6.556-.002.001a2.296 2.296 0 0 0-.167.069 2.522 2.522 0 0 0-.38.212c-.227.155-.75.581-.661 1.285.07.56.454.905.689 1.071.128.091.25.156.34.199.04.02.126.054.163.07l.01.003 3.169 1.067zm14.138-9.152h-.002a.785.785 0 0 1-.026.011L3.164 11.444a.818.818 0 0 1-.026.01l-.01.003a1.126 1.126 0 0 0-.09.04.851.851 0 0 0 .086.043l3.142 1.058a.75.75 0 0 1 .16.076l10.377-6.075.01-.005a1.59 1.59 0 0 1 .124-.068c.072-.037.187-.091.317-.131.09-.028.357-.107.645-.014a.854.854 0 0 1 .588.689.84.84 0 0 1 .003.424c-.07.275-.262.489-.438.653-.15.14-2.095 2.016-4.014 3.868l-2.613 2.52-.465.45 5.872 4.502a.536.536 0 0 0 .251.04.229.229 0 0 0 .117-.052.495.495 0 0 0 .103-.12l.002-.001 2.89-14.573a1.858 1.858 0 0 0-.267.086h-.002zm-8.461 12.394-1.172-.898-.284 1.805 1.456-.907zm-2.247-2.68 1.165-1.125 2.613-2.522.973-.938-6.52 3.817.035.082a339.2 339.2 0 0 1 1.22 2.92l.283-1.8a.747.747 0 0 1 .231-.435z" /></svg>
    </symbol>

    <symbol id="icon-mail">
        <svg xmlns="http://www.w3.org/2000/svg" viewBox="0 0 512 512"><path d="M480.5 56H31.3C20 56 10.9 65.2 10.9 76.5v359c0 11.3 9.1 20.5 20.4 20.5h449.2c11.3 0 20.4-9.2 20.4-20.5v-359c0-11.3-9.2-20.5-20.4-20.5zm-48.1 41L256.3 276.2 80.2 97h352.2zM51.7 415V126.5l190 193.3c10.3 10.9 18.6 9 29.1 0l189.3-192.5V415H51.7z"/></svg>
    </symbol>
    
</svg>